<svg id="logo-28" width="50" height="49" viewBox="0 0 50 49" fill="none" xmlns="http://www.w3.org/2000/svg"><path d="M40.8504 34.0526C44.6624 30.6486 47 26.0548 47 21C47 10.5066 36.9264 2 24.5 2C12.0736 2 2 10.5066 2 21C2 31.4934 12.0736 40 24.5 40C28.0253 40 31.3613 39.3154 34.3316 38.0949C37.8208 40.2486 42.0957 41.7967 46.8169 41.4702C44.3227 40.8362 42.1773 38.2679 40.8504 34.0526Z" class="ccompli2" fill="#007AFF"></path> <path d="M41 21C41 28.732 33.6127 35 24.5 35C15.3873 35 8 28.732 8 21C8 13.268 15.3873 7 24.5 7C33.6127 7 41 13.268 41 21Z" class="ccompli1" fill="#312ECB"></path> <path d="M35 21C35 25.9706 30.299 30 24.5 30C18.701 30 14 25.9706 14 21C14 16.0294 18.701 12 24.5 12C30.299 12 35 16.0294 35 21Z" class="ccustom" fill="#312ECB"></path></svg>